<svg xmlns="http://www.w3.org/2000/svg" viewBox="0 219.4 507 398.6" width="507" height="398.6"><defs><linearGradient id="tg" x1="0" y1="0" x2="1" y2="0.18"><stop offset="0" stop-color="#23C9DD"></stop><stop offset="0.49" stop-color="#27A6DE"></stop><stop offset="0.51" stop-color="#2C7BE2"></stop><stop offset="1" stop-color="#1659C8"></stop></linearGradient></defs><path fill-rule="evenodd" d="M163.33 44.28L144.35 37.16Q130.61 32.00 126.85 31.66L121.67 31.19L117.22 34.05Q114.00 36.13 108.96 42.07L107.04 44.33Q102.00 50.26 99.11 54.91L98.01 56.68Q95.11 61.33 94.59 64.55L94.39 65.78Q93.86 69.00 95.60 73.93L96.26 75.80Q98.00 80.73 106.56 93.16L118.37 110.33L115.84 137.01Q114.02 156.33 114.05 175.79L114.09 202.67L167.98 203.53Q207.00 204.16 217.22 206.61L221.11 207.55Q231.33 210.00 240.99 215.30L254.33 222.63L267.57 215.30Q277.16 210.00 287.03 207.51L290.79 206.56Q300.67 204.07 339.82 203.48L393.90 202.67L393.85 172.12Q393.81 150.00 392.15 133.34L389.85 110.33L401.93 93.09Q410.67 80.61 412.30 75.31L412.93 73.30Q414.57 68.00 413.77 64.67L413.46 63.40Q412.67 60.08 409.73 55.52L408.61 53.78Q405.67 49.22 400.55 43.39L398.60 41.17Q393.48 35.33 390.62 33.52L389.53 32.83Q386.67 31.02 384.01 31.03L382.99 31.04Q380.33 31.04 365.49 36.48L345.00 43.99L333.21 38.22Q324.67 34.04 316.39 31.08L313.24 29.96Q304.96 27.00 291.31 23.64L286.11 22.36Q272.45 19.00 263.44 17.72L260.01 17.23Q251.00 15.95 250.86 15.96L250.81 15.97Q250.67 15.98 228.27 21.46L219.73 23.55Q197.33 29.04 183.05 35.44L163.33 44.28ZM120.00 58.96L118.09 64.20Q116.71 68.00 117.67 71.74L118.04 73.17Q119.00 76.91 122.50 81.48L127.33 87.80L132.36 79.31Q136.00 73.16 140.94 67.21L147.77 59.00L141.76 56.68Q137.40 55.00 133.73 54.57L132.34 54.40Q128.67 53.97 128.53 53.98L128.47 53.98Q128.33 53.99 124.83 56.08L120.00 58.96ZM360.92 59.33L367.15 66.56Q371.67 71.79 375.73 78.58L381.33 87.96L386.14 81.21Q389.63 76.33 390.43 72.13L391.54 66.33L388.52 60.94Q386.33 57.04 383.95 55.81L383.05 55.34Q380.67 54.11 378.57 54.04L377.77 54.02Q375.67 53.95 375.53 53.97L375.47 53.98Q375.33 53.99 370.68 55.26L368.90 55.74Q364.25 57.00 362.85 57.98L360.92 59.33ZM189.00 66.33L180.74 69.04Q174.75 71.00 170.24 75.16L168.52 76.75Q164.00 80.91 161.48 85.97L160.52 87.89Q158.00 92.94 157.52 99.55L157.33 102.06Q156.85 108.67 159.01 114.48L159.84 116.69Q162.00 122.51 165.78 126.76L167.22 128.39Q171.00 132.64 175.45 135.17L177.15 136.14Q181.60 138.67 187.65 139.39L189.95 139.67Q196.00 140.39 201.60 138.82L203.73 138.22Q209.33 136.65 214.93 132.02L217.07 130.26Q222.67 125.63 225.56 119.21L226.66 116.76Q229.56 110.33 229.66 104.59L229.69 102.41Q229.79 96.67 228.06 91.68L227.40 89.78Q225.67 84.79 221.75 80.32L220.25 78.61Q216.33 74.14 211.53 71.56L209.71 70.58Q204.91 68.00 198.37 67.28L195.87 67.01Q189.33 66.29 189.19 66.31L189.14 66.32Q189.00 66.33 183.02 68.29ZM311.67 66.31L303.93 68.53Q298.33 70.14 293.15 74.26L291.18 75.83Q286.00 79.96 283.48 84.28L282.52 85.92Q280.00 90.25 279.27 96.44L278.99 98.80Q278.26 105.00 279.83 110.90L280.43 113.15Q282.00 119.05 286.16 124.35L287.74 126.37Q291.90 131.67 297.12 134.61L299.10 135.73Q304.32 138.67 310.49 139.39L312.83 139.67Q319.00 140.39 324.33 138.83L326.36 138.23Q331.68 136.67 336.72 132.39L338.63 130.77Q343.67 126.49 346.61 120.72L347.73 118.51Q350.67 112.74 351.09 107.36L351.25 105.31Q351.67 99.94 349.99 94.15L349.35 91.94Q347.67 86.14 343.53 81.04L341.95 79.10Q337.81 74.00 333.07 71.48L331.27 70.52Q326.54 68.00 320.43 67.27L318.11 67.00Q312.00 66.27 311.86 66.29L311.81 66.29Q311.67 66.31 306.07 67.92ZM196.00 92.30L194.95 97.73Q194.19 101.67 194.95 103.67L195.24 104.44Q196.00 106.44 197.70 108.22L198.35 108.89Q200.05 110.67 201.99 111.52L202.73 111.85Q204.67 112.70 207.33 112.70L208.34 112.70Q211.00 112.70 212.99 111.84L213.75 111.52Q215.74 110.67 217.39 108.99L218.01 108.35Q219.65 106.67 220.42 102.61L220.71 101.06Q221.47 97.00 220.68 94.90L220.38 94.10Q219.58 92.00 217.94 90.34L217.31 89.70Q215.67 88.04 213.71 87.16L212.96 86.83Q211.00 85.95 208.34 85.93L207.33 85.92Q204.67 85.91 204.53 85.93L204.47 85.94Q204.33 85.97 200.83 88.63L196.00 92.30ZM297.33 85.98L292.50 89.34Q289.00 91.78 288.16 93.74L287.84 94.48Q287.00 96.44 287.01 98.78L287.02 99.67Q287.03 102.00 287.92 103.96L288.26 104.71Q289.14 106.67 290.88 108.35L291.55 108.99Q293.28 110.67 295.26 111.48L296.02 111.79Q298.00 112.61 300.34 112.63L301.23 112.64Q303.57 112.67 305.60 111.83L306.37 111.51Q308.39 110.67 310.15 108.85L310.83 108.15Q312.59 106.33 313.34 103.81L313.63 102.85Q314.38 100.33 314.15 98.23L314.06 97.43Q313.82 95.33 312.88 93.51L312.52 92.82Q311.58 91.00 309.66 89.39L308.92 88.78Q307.00 87.17 303.08 86.65L301.59 86.45Q297.67 85.92 297.53 85.95L297.47 85.96Q297.33 85.98 293.83 88.42ZM238.67 128.02L233.41 133.61Q229.61 137.67 225.93 140.33L224.53 141.34Q220.84 144.00 218.81 147.32L216.00 151.90L216.68 156.79Q217.17 160.33 219.19 162.57L219.96 163.43Q221.97 165.67 224.22 166.54L225.08 166.88Q227.33 167.76 231.67 167.30L233.32 167.12Q237.66 166.67 244.52 163.75L254.00 159.72L263.47 163.75Q270.33 166.67 273.83 167.19L275.17 167.39Q278.67 167.91 281.79 166.96L282.98 166.61Q286.11 165.67 288.02 163.62L288.75 162.84Q290.67 160.80 291.34 158.08L291.59 157.05Q292.26 154.33 291.59 151.79L291.34 150.83Q290.67 148.29 282.16 139.77L270.42 128.00L261.09 126.44Q254.33 125.32 254.19 125.32L254.14 125.33Q254.00 125.33 247.56 126.46L238.67 128.02ZM237.97 176.33L240.00 189.86L243.33 192.77L265.33 192.70L268.67 189.33L270.46 176.67L261.11 172.31Q254.33 169.16 254.19 169.18L254.14 169.19Q254.00 169.21 247.27 172.20L237.97 176.33ZM16.00 330.39L78.33 330.55L78.65 303.94Q78.88 284.67 79.77 283.14L80.11 282.56Q81.00 281.04 82.40 280.33L82.93 280.05Q84.33 279.33 126.05 279.28L141.95 279.25Q183.67 279.19 188.85 279.98L190.82 280.28Q196.00 281.06 199.53 282.72L200.88 283.35Q204.41 285.00 207.79 287.94L209.08 289.06Q212.46 292.00 215.06 295.92L216.04 297.41Q218.64 301.33 219.91 304.75L220.39 306.05Q221.67 309.46 222.20 313.19L222.41 314.61Q222.95 318.33 223.11 353.47L223.33 401.98L229.52 396.77Q234.00 393.00 239.31 390.48L241.33 389.52Q246.64 387.00 252.25 385.95L254.39 385.56Q260.00 384.51 270.36 384.28L284.67 383.97L284.87 345.90Q285.02 318.33 285.85 313.79L286.17 312.06Q287.00 307.52 288.72 303.66L289.37 302.19Q291.08 298.33 293.71 294.87L294.71 293.55Q297.33 290.09 299.95 287.95L300.95 287.14Q303.56 285.00 307.22 283.32L308.61 282.68Q312.26 281.00 318.03 280.24L320.23 279.95Q326.00 279.20 367.72 279.49L425.33 279.88L427.17 281.69Q428.51 283.00 428.86 284.54L428.99 285.13Q429.34 286.67 429.48 305.01L429.67 330.35L491.67 330.56L491.96 280.74Q492.18 244.67 491.12 240.28L490.72 238.61Q489.67 234.23 487.28 230.77L486.37 229.46Q483.98 226.00 481.08 223.90L479.97 223.10Q477.06 221.00 472.56 219.85L470.84 219.42Q466.33 218.27 401.51 218.31L376.82 218.32Q312.00 218.36 305.56 219.08L303.11 219.35Q296.67 220.06 289.81 222.14L287.19 222.93Q280.33 225.01 275.50 227.53L273.66 228.48Q268.83 231.00 262.74 235.53L254.33 241.77L240.49 232.63Q230.47 226.00 219.79 223.06L215.72 221.94Q205.05 219.00 136.57 218.70L42.00 218.28L41.81 218.30Q41.67 218.30 38.17 219.04L36.83 219.32Q33.33 220.05 29.83 222.14L28.50 222.94Q25.00 225.04 22.48 228.38L21.52 229.66Q19.00 233.00 17.83 236.50L17.38 237.83Q16.21 241.33 16.12 278.74L16.00 330.39ZM301.33 352.67L339.17 354.00L341.78 357.00Q343.67 359.17 344.23 364.02L345.00 370.71L405.00 370.78L406.27 369.67L406.24 360.97Q406.21 354.67 405.14 347.72L404.74 345.07Q403.67 338.12 401.14 332.19L400.18 329.93Q397.66 324.00 393.40 318.54L391.78 316.46Q387.52 311.00 382.45 307.22L380.52 305.78Q375.46 302.00 369.11 299.48L366.69 298.52Q360.33 296.01 355.43 295.34L353.57 295.09Q348.67 294.43 338.87 294.38L325.33 294.31L325.14 294.32Q325.00 294.33 319.54 295.88L317.46 296.47Q312.00 298.03 308.22 302.33L306.78 303.97Q303.00 308.27 302.16 311.94L301.84 313.33Q301.01 317.00 301.14 331.98L301.33 352.67ZM293.11 588.67L341.96 559.62Q377.33 538.59 381.14 535.54L382.58 534.38Q386.39 531.33 389.44 527.79L390.61 526.44Q393.67 522.90 397.01 516.92L398.28 514.64Q401.62 508.67 403.36 502.23L404.02 499.77Q405.76 493.33 405.95 454.55L406.22 401.00L322.38 400.53Q261.67 400.19 256.07 401.38L253.93 401.84Q248.33 403.04 243.62 405.96L241.82 407.08Q237.11 410.00 233.70 414.15L232.40 415.73Q229.00 419.88 226.89 425.53L226.08 427.68Q223.97 433.33 223.69 462.03L223.31 501.67L224.61 503.41Q225.56 504.67 236.88 511.39L241.19 513.95Q252.51 520.67 253.89 520.67L254.42 520.67Q255.80 520.67 267.96 513.39L284.75 503.33L284.99 480.33Q285.17 463.67 285.66 462.46L286.33 460.80L340.67 460.11L343.68 462.67L343.59 473.88Q343.52 482.00 341.58 485.22L340.83 486.45Q338.89 489.67 305.15 509.41L292.30 516.93Q258.56 536.67 256.37 537.38L253.33 538.38L205.77 510.70Q171.33 490.65 168.67 487.81L165.00 483.88L164.53 412.61Q164.19 361.00 165.37 358.88L165.82 358.08Q167.00 355.96 169.52 354.72L170.48 354.25Q173.00 353.01 187.14 352.82L206.67 352.57L206.77 331.55Q206.85 316.33 205.09 311.26L204.42 309.33Q202.67 304.26 198.33 300.83L196.67 299.52Q192.33 296.08 188.97 295.40L187.69 295.15Q184.33 294.47 173.41 294.54L158.33 294.63L158.14 294.65Q158.00 294.66 150.36 296.48L147.45 297.18Q139.81 299.00 133.53 302.78L131.13 304.22Q124.85 308.00 119.47 314.02L117.43 316.31Q112.05 322.33 108.68 329.89L107.39 332.77Q104.02 340.33 103.08 347.61L102.72 350.39Q101.79 357.67 101.78 410.73L101.78 430.94Q101.78 484.00 103.13 492.58L103.65 495.85Q105.00 504.43 109.20 512.37L110.81 515.39Q115.01 523.33 121.87 529.75L124.48 532.19Q131.33 538.61 171.12 562.15L186.28 571.12Q226.06 594.67 233.88 597.59L236.85 598.71Q244.67 601.64 250.13 602.07L252.21 602.24Q257.67 602.68 264.25 600.99L266.75 600.35Q273.33 598.66 281.64 594.46L293.11 588.67Z" fill="url(#tg)"></path></svg>